# AST/ASF file generated using VICON BodyLanguage
# -----------------------------------------------
:version 1.10
:name VICON
:units
  mass 1.0
  length 0.45
  angle deg
:documentation
   .ast/.asf automatically generated from VICON data using
   VICON BodyBuilder and BodyLanguage model FoxedUp or BRILLIANT.MOD
:root
   order TX TY TZ RX RY RZ
   axis XYZ
   position 0 0 0  
   orientation 0 0 0 
:bonedata
  begin
     id 1 
     name lhipjoint
     direction 0.645893 -0.654526 0.392961 
     length 2.38111 
     axis 0 0 0  XYZ
  end
  begin
     id 2 
     name lfemur
     direction 0.34202 -0.939693 0  
     length 6.6822  
     axis 0 0 20  XYZ
    dof rx ry rz
    limits (-160.0 20.0)
           (-70.0 70.0)
           (-60.0 70.0)
  end
  begin
     id 3 
     name ltibia
     direction 0.34202 -0.939693 0   
     length 6.93904   
     axis 0 0 20   XYZ
    dof rx
    limits (-10.0 170.0)
  end
  begin
     id 4 
     name lfoot
     direction 0.0694967 -0.190941 0.979138   
     length 2.13616   
     axis -90 7.62852e-016 20   XYZ
    dof rx rz
    limits (-45.0 90.0)
           (-70.0 20.0)
  end
  begin
     id 5 
     name ltoes
     direction 1.535e-011 -4.2202e-011 1   
     length 1.07536   
     axis -90 7.62852e-016 20   XYZ
    dof rx
    limits (-90.0 20.0)
  end
  begin
     id 6 
     name rhipjoint
     direction -0.700219 -0.612087 0.367481   
     length 2.54621  
     axis 0 0 0  XYZ 
  end
  begin
     id 7 
     name rfemur
     direction -0.34202 -0.939693 0   
     length 6.55353   
     axis 0 0 -20   XYZ
    dof rx ry rz
    limits (-160.0 20.0)
           (-70.0 70.0)
           (-70.0 60.0)
  end
  begin
     id 8 
     name rtibia
     direction -0.34202 -0.939693 0   
     length 6.8736   
     axis 0 0 -20   XYZ
    dof rx
    limits (-10.0 170.0)
 end
 begin
     id 9 
     name rfoot
     direction -0.0679995 -0.186827 0.980037   
     length 2.1218  
     axis -90 -7.62852e-016 -20   XYZ
    dof rx rz
    limits (-45.0 90.0)
           (-20.0 70.0)
  end
  begin
     id 10 
     name rtoes
     direction -1.53589e-011 -4.21772e-011 1   
     length 1.06864   
     axis -90 -7.62852e-016 -20   XYZ
    dof rx
    limits (-90.0 20.0)
  end
  begin
     id 11 
     name lowerback
     direction -0.0416607 0.996347 -0.0745409   
     length 2.12205   
     axis 0 0 0   XYZ
    dof rx ry rz
    limits (-20.0 45.0)
           (-30.0 30.0)
           (-30.0 30.0)
  end
  begin
     id 12 
     name upperback
     direction -0.000153993 0.999276 -0.0380568   
     length 2.12759   
     axis 0 0 0   XYZ
    dof rx ry rz
    limits (-20.0 45.0)
           (-30.0 30.0)
           (-30.0 30.0)
  end
  begin
     id 13 
     name thorax
     direction 0.0187671 0.999821 -0.00241421   
     length 2.13704   
     axis 0 0 0   XYZ
    dof rx ry rz
    limits (-20.0 45.0)
           (-30.0 30.0)
           (-30.0 30.0)
  end
  begin
     id 14 
     name lowerneck
     direction 0.0268157 0.964865 0.261374   
     length 1.65253   
     axis 0 0 0   XYZ
    dof rx ry rz
    limits (-20.0 45.0)
           (-30.0 30.0)
           (-30.0 30.0)
  end
  begin
     id 15 
     name upperneck
     direction 0.00263774 0.939908 -0.341418   
     length 1.72375   
     axis 0 0 0   XYZ
    dof rx ry rz
    limits (-20.0 45.0)
           (-30.0 30.0)
           (-30.0 30.0)
  end
  begin
     id 16
     name head
     direction -0.00526001 0.989001 -0.147818  
     length 1.74878  
     axis 0 0 0   XYZ
    dof rx ry rz
    limits (-20.0 45.0)
           (-30.0 30.0)
           (-30.0 30.0)
  end
  begin
     id 17 
     name lclavicle
     direction 0.881214 0.461162 -0.103884  
     length 3.25108  
     axis 0 0 0   XYZ
    dof ry rz
    limits (-20.0 10.0)
           (0.0 20.0)
  end
  begin
     id 18 
     name lhumerus
     direction 1 -4.4899e-011 3.38092e-027   
     length 4.87408   
     axis 180 -30 -90   XYZ
    dof rx ry rz
    limits (-60.0 90.0)
           (-90.0 90.0)
           (-90.0 90.0)
  end
  begin
     id 19
     name lradius
     direction 1 -4.48931e-011 9.96288e-027   
     length 2.76729   
     axis 180 -30 -90   XYZ
    dof rx
    limits (-10.0 170.0)
  end
  begin
     id 20
     name lwrist
     direction 1 -4.4896e-011 1.50617e-026   
     length 1.38364   
     axis -9.31234e-015 90 90   XYZ
    dof ry
    limits (-180.0 0.0)
 end
  begin
     id 21 
     name lhand
     direction 1 -4.49038e-011 3.01286e-026   
     length 0.98922   
     axis -1.92217e-014 90 90   XYZ
    dof rx rz
    limits (-90.0 90.0)
           (-45.0 45.0)
  end
  begin
     id 22 
     name lfingers
     direction 1 -4.49051e-011 6.02588e-026   
     length 0.797535   
     axis -3.84436e-014 90 90   XYZ
    dof rx
    limits (0.0 90.0)
  end
  begin
     id 23
     name lthumb
     direction 0.707107 -6.34901e-011 0.707107   
     length 1.14511   
     axis -90 45 2.19363e-014   XYZ
    dof rx rz
    limits (-45.0 45.0)
           (-45.0 45.0)
  end
  begin
     id 24 
     name rclavicle
     direction -0.893894 0.441652 -0.0767889   
     length 3.29361  
     axis 0 0 0   XYZ 
    dof ry rz
    limits (-10.0 20.0)
           (-20.0 0.0)
  end
  begin
     id 25 
     name rhumerus
     direction -1 -4.48945e-011 8.0491e-028  
     length 4.71404   
     axis 180 30 90   XYZ
    dof rx ry rz
    limits (-90.0 60.0)
           (-90.0 90.0)
           (-90.0 90.0)
  end
  begin
     id 26 
     name rradius
     direction -1 -4.48986e-011 9.27795e-027   
     length 2.83468   
     axis 180 30 90   XYZ
    dof rx
    limits (-10.0 170.0)
  end
  begin
     id 27 
     name rwrist
     direction -1 -4.49029e-011 1.5064e-026   
     length 1.41734   
     axis -9.31234e-015 -90 -90   XYZ
    dof ry
    limits (-180.0 0.0)
  end
  begin
     id 28
     name rhand
     direction -1 -4.48857e-011 3.01165e-026   
     length 0.868195   
     axis -1.92217e-014 -90 -90   XYZ
    dof rx rz
    limits (-90.0 90.0)
           (-45.0 45.0)
  end
  begin
     id 29
     name rfingers
     direction -1 -4.49048e-011 6.02585e-026   
     length 0.699961   
     axis -3.84436e-014 -90 -90   XYZ
    dof rx
    limits (0.0 90.0)
  end
  begin
     id 30
     name rthumb
     direction -0.707107 -6.34854e-011 0.707107   
     length 1.00501   
     axis -90 -45 -2.19363e-014   XYZ
    dof rx rz
    limits (-45.0 45.0)
           (-45.0 45.0)
  end
:hierarchy
  begin
    root lhipjoint rhipjoint lowerback
    lhipjoint lfemur
    lfemur ltibia
    ltibia lfoot
    lfoot ltoes
    rhipjoint rfemur
    rfemur rtibia
    rtibia rfoot
    rfoot rtoes
    lowerback upperback
    upperback thorax
    thorax lowerneck lclavicle rclavicle
    lowerneck upperneck
    upperneck head
    lclavicle lhumerus
    lhumerus lradius
    lradius lwrist
    lwrist lhand lthumb
    lhand lfingers
    rclavicle rhumerus
    rhumerus rradius
    rradius rwrist
    rwrist rhand rthumb
    rhand rfingers
  end

#!OML:ASF H:\ManfredObstacles\Project 1\Capture day 2\Session 1\male.ASF
:FULLY-SPECIFIED
:DEGREES
82
root 1.58031 16.3431 -0.161234 -171.941 9.5627 180.271
lowerback -3.14629 4.20196 -1.41275
upperback 0.503968 5.73773 -1.89969
thorax 2.33289 2.87128 -0.86652
lowerneck -33.6677 1.22092 2.57385
upperneck 37.1023 -1.1296 -0.343183
head 20.293 -0.590165 -1.10042
rclavicle -1.98785e-016 -2.90226e-014
rhumerus -28.5106 10.5255 -93.6051
rradius 70.8992
rwrist 12.9453
rhand -7.53101 -1.89353
rfingers 7.12502
rthumb 18.3601 -31.0471
lclavicle -1.98785e-016 -2.90226e-014
lhumerus -47.7067 14.2289 61.6916
lradius 20.382
lwrist -51.297
lhand 4.2721 3.25349
lfingers 7.12502
lthumb 29.6754 30.899
rfemur 4.84289 2.84812 24.1541
rtibia 20.4321
rfoot 3.13486 -12.1899
rtoes -25.8056
lfemur -38.2244 -6.91162 -12.7419
ltibia 28.6238
lfoot 17.3863 15.9015
ltoes -8.99378
83
root 1.57248 16.3485 -0.455912 -171.754 10.0225 180.43
lowerback -3.62401 4.39963 -1.28204
upperback 0.381625 6.0084 -1.9734
thorax 2.49781 3.00776 -0.964657
lowerneck -33.654 1.22629 2.60639
upperneck 37.1943 -1.19459 -0.276744
head 20.3476 -0.603748 -1.09348
rclavicle 1.3418e-015 8.34896e-015
rhumerus -28.1406 11.0879 -93.7638
rradius 71.31
rwrist 13.1414
rhand -7.19307 -1.79822
rfingers 7.12502
rthumb 18.6851 -30.9208
lclavicle 1.3418e-015 8.34896e-015
lhumerus -48.7975 17.0048 57.8832
lradius 18.7478
lwrist -55.2895
lhand 4.59714 3.10306
lfingers 7.12502
lthumb 29.9856 30.6929
rfemur 6.45106 3.02433 24.0799
rtibia 18.7439
rfoot 4.6919 -11.8248
rtoes -26.0262
lfemur -38.282 -8.1621 -11.4993
ltibia 26.201
lfoot 18.8879 16.5383
ltoes -9.51337
84
root 1.56385 16.3435 -0.751389 -171.593 10.4766 180.636
lowerback -4.09101 4.59744 -1.11354
upperback 0.272621 6.27551 -2.02661
thorax 2.67374 3.14259 -1.05964
lowerneck -33.6786 1.2246 2.62944
upperneck 37.3183 -1.27792 -0.196961
head 20.4328 -0.623757 -1.08425
rclavicle -4.4329e-014 1.59028e-014
rhumerus -27.8279 11.6048 -93.894
rradius 71.7345
rwrist 13.3539
rhand -6.86792 -1.70437
rfingers 7.12502
rthumb 18.9978 -30.7966
lclavicle -4.4329e-014 1.59028e-014
lhumerus -50.2302 20.2056 53.3731
lradius 17.2214
lwrist -60.124
lhand 4.73404 2.94359
lfingers 7.12502
lthumb 30.1163 30.5097
rfemur 8.06125 3.29363 24.0586
rtibia 17.1129
rfoot 6.24872 -11.4782
rtoes -26.3006
lfemur -38.4443 -9.29417 -10.2972
ltibia 24.4893
lfoot 19.832 17.4124
ltoes -9.54601
85
root 1.55475 16.3273 -1.04729 -171.465 10.9111 180.868
lowerback -4.50386 4.78934 -0.923606
upperback 0.151387 6.53038 -2.06926
thorax 2.80937 3.27189 -1.15864
lowerneck -33.6877 1.22595 2.69151
upperneck 37.4276 -1.37034 -0.135319
head 20.5045 -0.644053 -1.0928
rclavicle 5.32743e-014 1.03368e-014
rhumerus -27.6164 12.0693 -94.0237
rradius 72.1787
rwrist 13.5534
rhand -6.56292 -1.63042
rfingers 7.12502
rthumb 19.2911 -30.6936
lclavicle 5.32743e-014 1.03368e-014
lhumerus -52.1749 23.7475 48.0215
lradius 15.8277
lwrist -65.7617
lhand 4.6976 2.81403
lfingers 7.12502
lthumb 30.0815 30.3865
rfemur 9.65094 3.64052 24.0751
rtibia 15.6015
rfoot 7.78161 -11.1228
rtoes -26.6149
lfemur -38.6584 -10.0424 -9.34599
ltibia 23.4686
lfoot 20.3683 18.1854
ltoes -8.87755
86
root 1.54523 16.2995 -1.34322 -171.395 11.31 181.099
lowerback -4.84835 4.96327 -0.742003
upperback 0.0373923 6.75876 -2.09934
thorax 2.9129 3.38801 -1.24553
lowerneck -33.7004 1.21003 2.68192
upperneck 37.5689 -1.48563 -0.00945673
head 20.5993 -0.675284 -1.06391
rclavicle -1.04263e-013 3.18055e-015
rhumerus -27.4895 12.4656 -94.1541
rradius 72.6302
rwrist 13.7867
rhand -6.29968 -1.58397
rfingers 7.12502
rthumb 19.5442 -30.6216
lclavicle -1.04263e-013 3.18055e-015
lhumerus -54.8432 27.6419 41.5851
lradius 14.5851
lwrist -72.3212
lhand 4.47964 2.69722
lfingers 7.12502
lthumb 29.8735 30.3073
rfemur 11.1897 4.03253 24.103
rtibia 14.3172
rfoot 9.23759 -10.7585
rtoes -26.8759
lfemur -38.8218 -10.1325 -8.87823
ltibia 23.0449
lfoot 20.5882 18.4566
ltoes -7.43091
87
root 1.53482 16.2594 -1.63924 -171.399 11.6494 181.297
lowerback -5.12857 5.11248 -0.582653
upperback -0.0597192 6.95372 -2.12619
thorax 2.99548 3.48739 -1.32285
lowerneck -33.6881 1.18945 2.67125
upperneck 37.67 -1.59804 0.112906
head 20.6623 -0.705348 -1.0342
rclavicle 7.03698e-014 2.78299e-014
rhumerus -27.4509 12.7956 -94.2887
rradius 73.0805
rwrist 14.0116
rhand -6.09767 -1.56961
rfingers 7.12502
rthumb 19.7385 -30.5874
lclavicle 7.03698e-014 2.78299e-014
lhumerus -58.4699 31.7071 33.8855
lradius 13.5461
lwrist -79.7186
lhand 4.12179 2.62296
lfingers 7.12502
lthumb 29.532 30.294
rfemur 12.6316 4.42823 24.1078
rtibia 13.3863
rfoot 10.5715 -10.3863
rtoes -27.0717
lfemur -38.8523 -9.43963 -9.03658
ltibia 23.101
lfoot 20.9109 17.9923
ltoes -5.83821
88
root 1.52353 16.2069 -1.93449 -171.485 11.9026 181.444
lowerback -5.32932 5.22172 -0.46425
upperback -0.139591 7.09618 -2.14945
thorax 3.04572 3.56031 -1.38405
lowerneck -33.6758 1.1848 2.68543
upperneck 37.759 -1.68723 0.212481
head 20.7179 -0.726082 -1.01364
rclavicle 4.05521e-014 1.27222e-014
rhumerus -27.4974 13.0586 -94.4308
rradius 73.5046
rwrist 14.2522
rhand -5.97313 -1.57215
rfingers 7.12502
rthumb 19.8582 -30.5776
lclavicle 4.05521e-014 1.27222e-014
lhumerus -63.3774 35.746 24.6181
lradius 12.7483
lwrist -88.0113
lhand 3.68996 2.57431
lfingers 7.12502
lthumb 29.1197 30.3174
rfemur 13.9152 4.78871 24.073
rtibia 12.9334
rfoot 11.7408 -10.0228
rtoes -27.2104
lfemur -38.7277 -7.96615 -9.84333
ltibia 23.542
lfoot 21.5699 16.6559
ltoes -4.74553
89
root 1.51094 16.1425 -2.22949 -171.662 12.0716 181.546
lowerback -5.44873 5.29457 -0.366551
upperback -0.193157 7.19009 -2.17149
thorax 3.07427 3.60889 -1.44277
lowerneck -33.6498 1.16699 2.66321
upperneck 37.8111 -1.77468 0.329895
head 20.7466 -0.747935 -0.975762
rclavicle -1.16289e-013 1.98785e-014
rhumerus -27.6237 13.2578 -94.5765
rradius 73.8943
rwrist 14.4996
rhand -5.92619 -1.60068
rfingers 7.12502
rthumb 19.9033 -30.6015
lclavicle -1.16289e-013 1.98785e-014
lhumerus -69.7503 39.3605 13.6925
lradius 12.2164
lwrist -96.977
lhand 3.18938 2.56885
lfingers 7.12502
lthumb 28.6415 30.3937
rfemur 15.0091 5.10497 23.9996
rtibia 13.0393
rfoot 12.7308 -9.67846
rtoes -27.2497
lfemur -38.4783 -6.05621 -11.0659
ltibia 24.311
lfoot 22.195 14.7801
ltoes -4.55403
90
root 1.49713 16.0688 -2.52356 -171.917 12.1532 181.591
lowerback -5.51091 5.33303 -0.295798
upperback -0.217009 7.23956 -2.19761
thorax 3.09784 3.6351 -1.49859
lowerneck -33.6231 1.14592 2.62615
upperneck 37.8558 -1.85676 0.448121
head 20.7708 -0.769729 -0.933162
rclavicle -2.79292e-014 3.33958e-014
rhumerus -27.8192 13.3847 -94.7085
rradius 74.2568
rwrist 14.7333
rhand -5.88478 -1.64823
rfingers 7.12502
rthumb 19.9431 -30.6449
lclavicle -2.79292e-014 3.33958e-014
lhumerus -77.3308 42.0313 1.58384
lradius 11.9773
lwrist -106.141
lhand 2.65415 2.62357
lfingers 7.12502
lthumb 28.13 30.5336
rfemur 15.8892 5.35913 23.8718
rtibia 13.7033
rfoot 13.5398 -9.36006
rtoes -27.2696
lfemur -38.1624 -3.99866 -12.5114
ltibia 25.3848
lfoot 22.393 12.6873
ltoes -5.13197
91
root 1.48217 15.9885 -2.81652 -172.243 12.1688 181.576
lowerback -5.50566 5.34324 -0.262927
upperback -0.221055 7.25364 -2.23273
thorax 3.09983 3.64353 -1.55164
lowerneck -33.5816 1.12248 2.57962
upperneck 37.8776 -1.93559 0.574262
head 20.7766 -0.790146 -0.88316
rclavicle 1.99779e-014 1.90833e-014
rhumerus -28.0921 13.4441 -94.8356
rradius 74.5939
rwrist 14.8964
rhand -5.86571 -1.70764
rfingers 7.12502
rthumb 19.9614 -30.7024
lclavicle 1.99779e-014 1.90833e-014
lhumerus -85.8724 43.537 -11.4806
lradius 12.0044
lwrist -115.466
lhand 2.07242 2.72848
lfingers 7.12502
lthumb 27.5738 30.7286
rfemur 16.5693 5.55385 23.676
rtibia 14.8582
rfoot 14.2226 -9.04396
rtoes -27.2419
lfemur -37.7993 -2.05517 -14.0005
ltibia 26.7393
lfoot 21.7367 11.0136
ltoes -5.41665
